<svg xmlns="http://www.w3.org/2000/svg">
  <symbol id="icon-leaf" viewBox="0 0 24 24">
    <path d="M20 4c-7.4.5-12 4.6-12 10.6 0 2.1 1.3 3.4 3.3 3.4C16.6 18 20.1 12.6 20 4Z"></path>
    <path d="M4 20c3.1-5.9 7.1-9.3 12-10.2"></path>
  </symbol>
  <symbol id="icon-compass" viewBox="0 0 24 24">
    <circle cx="12" cy="12" r="8"></circle>
    <path d="m15.4 8.6-2.2 5.1-5.1 2.2 2.2-5.1 5.1-2.2Z"></path>
  </symbol>
  <symbol id="icon-heart" viewBox="0 0 24 24">
    <path d="M12 19.5S5 15.2 5 9.8C5 7.6 6.7 6 8.8 6c1.3 0 2.5.7 3.2 1.8C12.7 6.7 13.9 6 15.2 6 17.3 6 19 7.6 19 9.8c0 5.4-7 9.7-7 9.7Z"></path>
  </symbol>
  <symbol id="icon-spark" viewBox="0 0 24 24">
    <path d="M12 3.5 14 9l5.5 2-5.5 2-2 5.5-2-5.5-5.5-2 5.5-2 2-5.5Z"></path>
    <path d="M19 16v4"></path>
    <path d="M17 18h4"></path>
  </symbol>
  <symbol id="icon-wave" viewBox="0 0 24 24">
    <path d="M4 9c2 0 2-2 4-2s2 2 4 2 2-2 4-2 2 2 4 2"></path>
    <path d="M4 15c2 0 2-2 4-2s2 2 4 2 2-2 4-2 2 2 4 2"></path>
  </symbol>
  <symbol id="icon-sun" viewBox="0 0 24 24">
    <circle cx="12" cy="12" r="4"></circle>
    <path d="M12 3v2"></path>
    <path d="M12 19v2"></path>
    <path d="M3 12h2"></path>
    <path d="M19 12h2"></path>
    <path d="m5.6 5.6 1.4 1.4"></path>
    <path d="m17 17 1.4 1.4"></path>
    <path d="m18.4 5.6-1.4 1.4"></path>
    <path d="m7 17-1.4 1.4"></path>
  </symbol>
  <symbol id="icon-path" viewBox="0 0 24 24">
    <path d="M5 19c3-8 11-6 14-14"></path>
    <path d="M5 19h5"></path>
    <path d="M5 19v-5"></path>
  </symbol>
  <symbol id="icon-bloom" viewBox="0 0 24 24">
    <path d="M12 13c-2.2 0-4-1.8-4-4 0-3.2 4-6 4-6s4 2.8 4 6c0 2.2-1.8 4-4 4Z"></path>
    <path d="M12 13v8"></path>
    <path d="M12 18c-3.4 0-6-2.5-6-5.7 3.8-.3 6 1.9 6 5.7Z"></path>
    <path d="M12 18c3.4 0 6-2.5 6-5.7-3.8-.3-6 1.9-6 5.7Z"></path>
  </symbol>
  <symbol id="icon-instagram" viewBox="0 0 24 24">
    <rect x="4" y="4" width="16" height="16" rx="5"></rect>
    <circle cx="12" cy="12" r="3.5"></circle>
    <path d="M17.2 6.8h.1"></path>
  </symbol>
  <symbol id="icon-facebook" viewBox="0 0 24 24">
    <path d="M14 8h2V5h-2.4C10.9 5 10 6.8 10 8.8V11H8v3h2v5h3v-5h2.3l.7-3h-3V9c0-.6.4-1 1-1Z"></path>
  </symbol>
  <symbol id="icon-phone" viewBox="0 0 24 24">
    <path d="M6.6 10.8c1.4 2.8 3.8 5.2 6.6 6.6l2.2-2.2c.3-.3.7-.4 1.1-.3 1.2.4 2.5.6 3.8.6.6 0 1 .4 1 1V20c0 .6-.4 1-1 1C10.9 21 3 13.1 3 3.7 3 3.1 3.4 2.7 4 2.7h3.5c.6 0 1 .4 1 1 0 1.3.2 2.6.6 3.8.1.4 0 .8-.3 1.1L6.6 10.8Z"></path>
  </symbol>
  <symbol id="icon-mail" viewBox="0 0 24 24">
    <rect x="3.5" y="5.5" width="17" height="13" rx="2.5"></rect>
    <path d="m4.5 7 7.5 6 7.5-6"></path>
  </symbol>
  <symbol id="icon-arrow" viewBox="0 0 24 24">
    <path d="M8 16 16 8"></path>
    <path d="M9.5 8H16v6.5"></path>
  </symbol>
  <symbol id="icon-star" viewBox="0 0 24 24">
    <path d="M12 2.5 14.6 8.6 21.3 9.3 16.3 13.9 17.7 20.5 12 17.1 6.3 20.5 7.7 13.9 2.7 9.3 9.4 8.6Z"></path>
  </symbol>
  <symbol id="icon-document" viewBox="0 0 24 24">
    <path d="M7 3.5h7l4 4V20a1 1 0 0 1-1 1H7a1 1 0 0 1-1-1V4.5a1 1 0 0 1 1-1Z"></path>
    <path d="M14 3.5V8h4"></path>
    <path d="M9 13h6"></path>
    <path d="M9 16.5h6"></path>
  </symbol>
  <symbol id="icon-shield" viewBox="0 0 24 24">
    <path d="M12 3.3 19 6v5.3c0 4.6-3 7.8-7 9.1-4-1.3-7-4.5-7-9.1V6l7-2.7Z"></path>
    <path d="m9.3 12.3 1.9 1.9 3.5-3.9"></path>
  </symbol>
  <symbol id="icon-quill" viewBox="0 0 24 24">
    <path d="M19.5 4.5c-5 .5-10 3-13.5 9.5-1 1.9-1.5 3.5-1.7 5.2 1.7-.2 3.3-.7 5.2-1.7 6.5-3.5 9-8.5 9.5-13.5Z"></path>
    <path d="M13 11 5.5 18.5"></path>
  </symbol>
  <symbol id="icon-chevron" viewBox="0 0 24 24">
    <path d="M9.5 5.5 16 12l-6.5 6.5"></path>
  </symbol>
</svg>
